# xmcd
#
# Track frame offsets:
#	150
#	3573
#	18170
#	38684
#	61480
#	79431
#	80579
#	91232
#	108364
#	123655
#	128060
#	141983
#	164663
#	165974
#	185180
#	203550
#	212811
#	231194
#	248525
#	265007
#
# Disc length: 3901 seconds
#
# Revision: 1
# Processed by: cddbd v1.5.2PL0 Copyright (c) Steve Scherf et al.
# Submitted via: audiograbber 1.80
#
DISCID=100f3b14
DTITLE=Everlast - Whitey ford sings the blues
DYEAR=1900
DGENRE=
TTITLE0=The white boy is back
TTITLE1=Money
TTITLE2=Ends
TTITLE3=What's it like
TTITLE4=Get down
TTITLE5=Sen dog
TTITLE6=Tired
TTITLE7=Hot to death
TTITLE8=Pinkillers
TTITLE9=Prince Paul
TTITLE10=Praise the lord
TTITLE11=Today
TTITLE12=Guru
TTITLE13=Death comes callin
TTITLE14=Funky Beat
TTITLE15=The letter
TTITLE16=7 Years
TTITLE17=Next man
TTITLE18=none
TTITLE19=none
EXTD=
EXTT0=
EXTT1=
EXTT2=
EXTT3=
EXTT4=
EXTT5=
EXTT6=
EXTT7=
EXTT8=
EXTT9=
EXTT10=
EXTT11=
EXTT12=
EXTT13=
EXTT14=
EXTT15=
EXTT16=
EXTT17=
EXTT18=
EXTT19=
PLAYORDER=
